# File created by Blade
# Date/Time:  Tue Jan 27 19:38:14 2015
# Frame Rate: 120.000 fps
#------------------------------------------------------
:FULLY-SPECIFIED
:DEGREES
2453
root 4.402893 32.313941 2.034565 -4.105435 -1.822836 0.343781
Spine 2.310952 2.521130 -0.527602
Head 12.144485 -6.175623 1.153362
LeftShoulder -7.973634 -5.069941 26.949052
LeftArm -2.897897 33.350833 -101.525719
LeftForeArm 2.089238 0.000000 12.113891
LeftHand 10.693115 0.000000 -4.428146
LeftHandThumb1 -26.253704 0.000000 33.147579
RightShoulder -12.802300 -12.370934 -20.372000
RightArm 3.646896 38.214942 101.451464
RightForeArm 4.717898 -0.000000 117.497524
RightHand 25.611555 -0.000000 -24.360133
RightHandThumb1 -24.326973 -0.000000 -32.862282
LeftUpLeg 8.370370 -1.930989 -3.202475
LeftLeg 2.841537 -0.000000 -0.000000
LeftFoot -17.805314 14.123168 -22.002879
LeftToeBase 16.857240 -0.000000 -0.000000
RightUpLeg 6.685779 -5.241630 3.135244
RightLeg 3.605659 -0.000000 -0.000000
RightFoot -12.880620 -13.470689 13.168872
RightToeBase 9.034679 -0.000000 -0.000000
2454
root 4.403021 32.313709 2.032159 -4.133468 -1.859342 0.346897
Spine 2.362647 2.520847 -0.507736
Head 12.072593 -6.216228 1.107583
LeftShoulder -8.001533 -5.029479 26.899865
LeftArm -2.816971 33.311571 -101.450027
LeftForeArm 2.281833 -0.000000 12.076580
LeftHand 10.662101 -0.000000 -3.465129
LeftHandThumb1 -26.253704 0.000000 33.147579
RightShoulder -12.849961 -12.444343 -20.427377
RightArm 3.815739 36.612397 101.326908
RightForeArm 4.377141 -0.000000 117.393508
RightHand 25.482937 -0.000000 -24.490039
RightHandThumb1 -24.326973 -0.000000 -32.862282
LeftUpLeg 8.387099 -1.929761 -3.213506
LeftLeg 2.873831 -0.000000 -0.000000
LeftFoot -17.854801 14.135358 -22.087557
LeftToeBase 16.805301 -0.000000 -0.000000
RightUpLeg 6.696969 -5.237903 3.127824
RightLeg 3.622438 -0.000000 -0.000000
RightFoot -12.870260 -13.441369 13.161142
RightToeBase 8.992620 -0.000000 -0.000000
2455
root 4.400600 32.312988 2.028779 -4.139343 -1.923981 0.349052
Spine 2.377252 2.511477 -0.487426
Head 12.028391 -6.200215 1.034097
LeftShoulder -8.039319 -5.064420 26.855998
LeftArm -2.860940 33.255256 -101.422435
LeftForeArm 2.397380 -0.000000 12.034515
LeftHand 10.598767 -0.000000 -2.756427
LeftHandThumb1 -26.253704 0.000000 33.147579
RightShoulder -12.891522 -12.505989 -20.483004
RightArm 3.974994 34.951443 101.155420
RightForeArm 4.249631 -0.000000 117.262903
RightHand 25.130090 -0.000000 -24.165501
RightHandThumb1 -24.326973 -0.000000 -32.862282
LeftUpLeg 8.392189 -1.873227 -3.207902
LeftLeg 2.873956 -0.000000 -0.000000
LeftFoot -17.845027 14.151592 -22.071783
LeftToeBase 16.743912 -0.000000 -0.000000
RightUpLeg 6.677352 -5.184837 3.134141
RightLeg 3.648594 -0.000000 -0.000000
RightFoot -12.874540 -13.442062 13.146357
RightToeBase 8.972392 -0.000000 -0.000000
2456
root 4.397970 32.311682 2.027571 -4.164257 -1.993838 0.355573
Spine 2.400383 2.498110 -0.474130
Head 12.006431 -6.160113 0.959852
LeftShoulder -8.091168 -4.979980 26.804209
LeftArm -2.759247 33.231725 -101.326065
LeftForeArm 2.414902 -0.000000 11.967226
LeftHand 10.595342 -0.000000 -2.659210
LeftHandThumb1 -26.253704 0.000000 33.147579
RightShoulder -12.882481 -12.560101 -20.569822
RightArm 4.148494 33.366254 101.025912
RightForeArm 4.846620 0.000000 117.085057
RightHand 25.361475 -0.000000 -22.910123
RightHandThumb1 -24.326973 -0.000000 -32.862282
LeftUpLeg 8.432948 -1.808846 -3.214445
LeftLeg 2.865989 -0.000000 -0.000000
LeftFoot -17.787432 14.200681 -21.894395
LeftToeBase 16.526155 -0.000000 -0.000000
RightUpLeg 6.672870 -5.174555 3.127149
RightLeg 3.690528 -0.000000 -0.000000
RightFoot -12.888691 -13.371999 13.135497
RightToeBase 8.992602 -0.000000 -0.000000
2457
root 4.395141 32.311252 2.026224 -4.200567 -2.049482 0.359249
Spine 2.454426 2.482584 -0.463858
Head 11.952266 -6.031692 0.870621
LeftShoulder -8.144930 -4.906188 26.749565
LeftArm -2.655492 33.162969 -101.223224
LeftForeArm 2.478364 -0.000000 11.907340
LeftHand 10.602275 -0.000000 -2.692484
LeftHandThumb1 -26.253704 0.000000 33.147579
RightShoulder -12.928851 -12.634624 -20.659220
RightArm 4.309815 31.514240 100.855931
RightForeArm 4.974548 -0.000000 116.825876
RightHand 25.692039 -0.000000 -22.060372
RightHandThumb1 -24.326973 -0.000000 -32.862282
LeftUpLeg 8.469580 -1.752954 -3.203962
LeftLeg 2.846810 -0.000000 -0.000000
LeftFoot -17.831128 14.190268 -22.017588
LeftToeBase 16.681856 -0.000000 -0.000000
RightUpLeg 6.695535 -5.125988 3.130577
RightLeg 3.704026 -0.000000 -0.000000
RightFoot -12.887594 -13.377824 13.111140
RightToeBase 8.937209 -0.000000 -0.000000
